<svg width="24" height="24" viewBox="0 0 24 24" fill="none" xmlns="http://www.w3.org/2000/svg">
<path d="M7.47601 7.08398C9.11836 8.78803 11.3834 9.75049 13.75 9.74998C14.9363 9.75032 16.1102 9.50873 17.2 9.03998" stroke="white" stroke-width="1.5" stroke-linecap="round" stroke-linejoin="round"/>
<path fill-rule="evenodd" clip-rule="evenodd" d="M12 15C14.8995 15 17.25 12.6495 17.25 9.75C17.25 6.85051 14.8995 4.5 12 4.5C9.10051 4.5 6.75 6.85051 6.75 9.75C6.75 12.6495 9.10051 15 12 15Z" stroke="white" stroke-width="1.5" stroke-linecap="round" stroke-linejoin="round"/>
<path d="M18.913 20.876C17.0835 19.0351 14.5953 17.9999 12 17.9999C9.4046 17.9999 6.91643 19.0351 5.08698 20.876" stroke="white" stroke-width="1.5" stroke-linecap="round" stroke-linejoin="round"/>
<path fill-rule="evenodd" clip-rule="evenodd" d="M12 23.25C18.2132 23.25 23.25 18.2132 23.25 12C23.25 5.7868 18.2132 0.75 12 0.75C5.7868 0.75 0.75 5.7868 0.75 12C0.75 18.2132 5.7868 23.25 12 23.25Z" stroke="white" stroke-width="1.5" stroke-linecap="round" stroke-linejoin="round"/>
</svg>
